<?xml version="1.0" standalone="no"?>
<!DOCTYPE svg PUBLIC "-//W3C//DTD SVG 20010904//EN"
 "http://www.w3.org/TR/2001/REC-SVG-20010904/DTD/svg10.dtd">
<svg version="1.0" xmlns="http://www.w3.org/2000/svg"
 width="1024.000000pt" height="1024.000000pt" viewBox="0 0 1024.000000 1024.000000"
 preserveAspectRatio="xMidYMid meet">
<metadata>
Created by potrace 1.14, written by Peter Selinger 2001-2017
</metadata>
<g transform="translate(0.000000,1024.000000) scale(0.100000,-0.100000)"
fill="#000000" stroke="none">
<path d="M0 7970 c0 -1248 1 -2270 3 -2270 2 0 54 23 117 51 195 87 276 110
440 129 102 12 231 2 338 -26 81 -21 374 -156 450 -207 23 -15 41 -24 40 -19
-5 18 101 93 209 149 60 30 129 68 154 84 25 16 77 40 115 53 89 30 152 62
186 93 14 14 32 22 38 18 6 -4 20 2 30 13 10 11 40 28 67 37 111 40 153 68
145 98 -4 20 -3 21 13 6 20 -19 101 -15 126 7 8 8 24 14 35 14 19 1 19 1 0 15
-18 13 -74 11 -86 -5 -3 -3 -27 -6 -55 -6 -43 1 -51 4 -62 27 -8 17 -10 36 -4
56 5 17 7 41 4 55 -6 32 31 64 52 45 11 -10 11 -16 -1 -35 -8 -12 -11 -28 -7
-35 4 -7 6 -20 5 -29 -2 -11 3 -18 12 -18 9 0 16 9 16 20 0 13 7 20 20 20 11
0 20 5 20 10 0 16 25 11 47 -10 l22 -19 11 35 c10 30 16 35 34 29 11 -4 32 -9
46 -12 l25 -4 -27 23 c-15 13 -37 30 -50 39 -18 13 -22 26 -23 70 -1 50 -3 54
-24 54 -13 0 -29 9 -35 20 -6 11 -17 24 -23 28 -7 4 -13 15 -13 23 0 12 -5 11
-27 -3 -15 -10 -24 -13 -20 -7 4 7 0 17 -8 24 -8 7 -15 19 -15 26 0 8 -7 14
-15 14 -8 0 -15 -7 -15 -16 0 -8 -4 -12 -10 -9 -5 3 -10 0 -10 -7 0 -7 -5 -5
-12 6 -13 22 -5 212 11 266 18 61 155 278 225 355 77 86 231 205 310 240 63
28 176 59 184 51 8 -9 21 -116 16 -131 -3 -7 -26 -18 -52 -25 -65 -16 -111
-40 -117 -61 -3 -10 1 -32 10 -49 9 -17 13 -39 10 -50 -5 -14 4 -25 40 -46 60
-35 111 -39 435 -33 l125 2 0 -34 c0 -19 4 -39 8 -46 4 -6 3 -14 -2 -17 -4 -3
-11 -18 -14 -33 -5 -26 -11 -29 -99 -46 -130 -26 -343 -31 -421 -11 -120 31
-202 87 -252 171 -15 25 -23 29 -53 28 -37 -3 -62 -25 -62 -58 0 -45 -92 -127
-143 -127 -34 0 -40 -13 -16 -33 25 -22 25 -40 -1 -32 -11 4 -20 2 -20 -4 0
-6 9 -11 19 -11 12 0 28 -15 43 -42 15 -28 51 -61 110 -103 72 -52 102 -82
176 -181 112 -150 186 -261 228 -345 l33 -65 243 3 243 3 16 53 c58 186 172
403 270 515 17 18 41 51 54 72 27 43 65 67 135 85 l45 11 -53 53 c-28 28 -52
57 -53 64 -1 25 -87 132 -108 135 -11 2 -47 -13 -78 -32 -80 -49 -138 -72
-130 -53 4 11 0 13 -13 10 -16 -4 -19 1 -18 38 0 30 6 50 19 62 15 14 17 27
13 65 -5 40 -13 53 -52 90 -26 23 -51 42 -57 42 -5 0 -39 11 -76 25 -43 17
-69 33 -76 48 -13 30 -4 97 14 104 26 10 175 -27 248 -62 149 -71 335 -238
422 -380 122 -196 147 -278 144 -465 -3 -167 3 -280 15 -280 2 0 68 -21 146
-46 79 -25 229 -68 333 -95 105 -28 264 -74 355 -104 91 -29 228 -70 305 -91
77 -20 167 -50 200 -67 33 -16 83 -38 110 -47 43 -15 50 -20 47 -40 -3 -19 0
-21 15 -15 10 4 24 8 31 8 9 0 11 8 8 22 -13 52 68 126 241 220 143 78 224
104 363 116 233 20 355 -10 583 -143 40 -23 87 -53 105 -67 36 -29 122 -135
122 -151 0 -24 101 49 175 127 51 53 100 94 135 112 39 20 54 33 52 45 -5 27
18 126 43 181 35 81 151 212 225 254 14 8 50 30 80 48 75 46 138 64 245 70
111 6 188 -12 298 -70 113 -60 188 -125 247 -214 62 -95 81 -152 87 -263 5
-81 4 -84 -12 -62 -9 12 -21 20 -26 17 -14 -9 -69 50 -69 73 0 11 -14 35 -32
53 -17 19 -48 57 -67 85 -62 87 -87 112 -142 139 -49 25 -63 27 -183 29 -91 1
-131 5 -134 14 -2 7 -10 12 -18 12 -9 0 -12 -5 -9 -10 4 -6 -10 -32 -29 -59
-21 -28 -34 -55 -30 -64 9 -24 -12 -28 -39 -7 l-25 20 -11 -30 c-5 -17 -16
-30 -24 -30 -9 0 -17 -14 -21 -35 -4 -19 -10 -34 -14 -34 -31 5 -41 -16 -26
-55 5 -13 10 -14 20 -5 10 8 23 5 53 -11 37 -21 40 -22 62 -6 30 21 45 20 75
-3 23 -18 23 -19 3 -24 -25 -7 -18 -21 19 -40 27 -13 30 -12 65 18 46 40 114
46 164 16 34 -21 76 -92 88 -151 4 -19 16 -53 27 -75 18 -37 48 -121 48 -137
0 -8 -89 -61 -117 -70 -12 -3 -38 -2 -58 2 -28 6 -44 3 -75 -13 -21 -12 -41
-19 -44 -16 -3 3 -8 20 -10 38 -5 48 -21 58 -42 26 -13 -20 -19 -23 -26 -13
-6 11 -10 10 -17 -1 -13 -21 -44 5 -36 30 3 10 3 34 -1 54 -6 33 -8 35 -38 30
-29 -6 -33 -3 -44 28 -6 18 -12 41 -12 51 0 9 -8 44 -18 76 -15 54 -20 60 -44
60 -21 0 -28 5 -28 20 0 11 5 20 11 20 23 0 -33 59 -72 74 -34 14 -50 15 -107
5 -78 -13 -132 -42 -132 -70 0 -11 -7 -22 -15 -25 -8 -4 -13 -10 -10 -14 3 -4
-9 -25 -25 -45 -17 -21 -30 -42 -30 -46 0 -18 -38 -8 -43 11 -10 38 -21 30
-103 -67 -20 -24 -41 -43 -48 -43 -6 -1 -24 -19 -39 -41 -37 -53 -30 -89 35
-177 27 -37 56 -83 65 -102 8 -19 17 -29 20 -22 11 28 19 9 13 -31 -3 -23 -6
-90 -6 -149 1 -58 -2 -104 -6 -101 -5 2 -8 12 -8 22 0 10 -3 21 -7 25 -5 4 -8
11 -8 14 -2 36 -18 60 -42 65 -23 5 -34 19 -62 79 -19 40 -43 80 -55 89 -18
15 -22 15 -43 2 -22 -15 -23 -14 -23 10 0 13 -9 36 -20 50 -11 14 -29 45 -39
70 -15 35 -34 55 -75 83 -31 20 -56 40 -56 44 0 4 -16 15 -35 26 -27 14 -37
16 -47 6 -21 -21 -42 -13 -65 23 -16 25 -34 37 -65 46 -24 6 -47 15 -53 19 -5
5 -13 8 -18 8 -4 1 -32 8 -63 17 -34 10 -52 20 -48 27 5 8 -24 9 -100 6 -74
-3 -110 -9 -116 -18 -6 -9 -21 -11 -52 -7 -55 8 -85 0 -129 -35 -19 -15 -65
-51 -103 -80 -145 -111 -170 -135 -206 -187 -31 -45 -36 -59 -30 -82 13 -43 2
-72 -24 -65 -14 3 -29 -3 -45 -19 -15 -16 -34 -25 -55 -25 -17 0 -41 -3 -54
-6 -30 -9 -62 -75 -56 -117 3 -18 -1 -52 -9 -76 l-14 -44 -26 51 c-15 29 -24
58 -20 68 3 9 0 19 -6 24 -22 13 36 110 66 110 9 0 11 -5 7 -12 -5 -8 -1 -7
10 2 21 17 37 53 42 95 3 33 34 120 62 173 20 39 9 63 -34 73 -16 3 -65 21
-108 38 -43 18 -115 39 -160 47 -45 8 -103 22 -130 30 -58 17 -80 18 -71 4 11
-18 -4 -10 -29 15 -14 14 -33 25 -43 25 -66 0 -725 192 -824 240 -35 16 -74
30 -88 30 -28 0 -53 -12 -53 -26 1 -10 42 -28 60 -25 19 3 15 -71 -7 -128 -17
-46 -61 -117 -48 -78 5 13 1 17 -18 17 -16 0 -25 6 -25 15 0 23 -28 18 -36 -7
-5 -13 -7 -26 -6 -30 1 -5 -1 -7 -6 -7 -26 4 -42 -3 -42 -20 0 -13 -18 -27
-62 -47 -35 -15 -66 -27 -70 -26 -5 1 -8 -6 -8 -17 0 -25 -23 -42 -59 -43 -16
-1 -29 -6 -28 -12 1 -6 -9 -10 -23 -10 -13 1 -29 -4 -35 -11 -5 -7 -18 -15
-28 -19 -15 -5 -17 -2 -12 17 10 31 34 67 45 67 6 0 8 11 4 25 -3 14 -3 33 2
42 4 10 8 34 9 54 1 27 9 43 36 67 19 17 35 29 37 27 2 -2 -6 -25 -17 -51 -12
-26 -20 -48 -19 -48 2 -1 10 -7 19 -14 13 -10 15 -8 14 11 -5 58 36 117 81
117 16 0 28 8 34 23 5 12 9 16 9 8 1 -11 5 -11 19 2 20 18 47 23 38 8 -3 -5 8
-14 25 -20 17 -6 28 -15 24 -21 -3 -5 -1 -10 4 -10 6 0 11 7 11 15 0 7 7 18
17 23 15 9 14 12 -5 37 -16 20 -19 32 -12 45 9 17 4 30 -12 30 -5 0 -6 -4 -3
-10 3 -5 0 -10 -8 -10 -19 0 -30 -27 -15 -36 14 -9 -61 -33 -80 -26 -6 2 -15
23 -19 46 -3 22 -8 36 -10 29 -3 -7 -11 -9 -20 -6 -10 4 -14 0 -13 -13 5 -43
-1 -54 -32 -62 -43 -12 -58 -5 -58 25 0 23 -1 23 -16 8 -10 -10 -25 -14 -38
-11 -12 3 -27 6 -33 6 -7 0 -13 9 -13 20 0 18 -1 18 -25 -4 -14 -13 -25 -28
-25 -34 0 -6 -6 -15 -14 -19 -25 -15 -68 -183 -46 -183 4 0 10 -9 13 -20 3
-11 0 -20 -6 -20 -7 0 -23 -16 -36 -35 -13 -19 -31 -35 -40 -35 -17 0 -37 -36
-47 -88 -5 -25 -11 -32 -30 -32 -30 0 -31 -18 -2 -29 21 -8 21 -8 -5 -13 -27
-5 -29 -3 -31 37 -1 11 -8 20 -16 20 -8 0 -15 -9 -15 -20 0 -21 -14 -22 -52
-3 -21 10 -21 12 -5 24 9 7 12 14 5 14 -6 0 -19 3 -28 7 -14 5 -16 2 -11 -14
5 -17 2 -20 -24 -20 -18 0 -30 6 -30 13 0 9 -14 12 -44 10 -25 -1 -45 0 -44 3
0 3 0 8 -1 11 -1 3 -4 21 -5 40 -5 53 -23 90 -44 90 -13 0 -23 16 -37 65 -11
36 -23 65 -27 65 -5 0 -8 -4 -8 -9 0 -15 -33 -23 -41 -10 -4 7 -16 14 -28 16
-17 2 -21 -5 -27 -43 -3 -25 -13 -52 -21 -59 -8 -8 -10 -15 -5 -15 16 0 22
-42 7 -56 -18 -19 -29 -18 -50 6 -26 29 -31 26 -46 -26 -16 -53 -31 -69 -56
-59 -16 6 -14 8 9 21 37 19 57 88 34 113 -9 10 -16 27 -16 39 0 66 -95 198
-171 238 l-29 14 11 -27 c8 -22 6 -30 -9 -46 -16 -16 -23 -17 -41 -7 -20 10
-29 4 -93 -54 -54 -51 -104 -83 -217 -141 -80 -42 -166 -88 -191 -103 -25 -15
-67 -36 -95 -46 -51 -18 -356 -165 -365 -175 -3 -4 -27 -8 -54 -9 -37 -2 -51
1 -61 15 -18 25 -28 12 -15 -21 5 -15 10 -67 10 -114 0 -103 11 -123 102 -197
39 -31 64 -61 78 -93 16 -37 23 -43 31 -32 7 11 9 4 8 -25 -1 -22 2 -65 6 -95
9 -69 -5 -87 -49 -65 -16 8 -41 15 -57 15 -42 0 -79 27 -79 57 0 25 2 25 49
19 l49 -6 -13 51 c-17 65 -124 183 -166 185 -26 1 -41 10 -179 106 -71 49
-136 78 -176 78 -39 0 -64 18 -64 46 0 14 -4 23 -9 19 -9 -5 -61 13 -71 26
-15 17 -175 49 -250 49 -25 0 -77 7 -115 15 -95 20 -149 19 -195 -5 -22 -11
-45 -20 -52 -20 -8 0 -46 -15 -85 -34 -40 -19 -85 -34 -102 -34 -16 1 -41 -7
-55 -16 l-26 -16 0 -164 c0 -160 1 -164 20 -159 11 3 23 9 25 14 7 11 32 1 79
-33 21 -15 42 -25 47 -23 9 6 31 -29 24 -37 -3 -3 3 -13 14 -22 18 -17 19 -17
25 1 3 10 15 24 27 31 18 11 24 11 38 -2 28 -25 34 -19 28 29 -4 25 -3 45 1
45 8 0 41 -84 46 -114 1 -8 13 -24 27 -35 l25 -19 13 29 c10 23 10 33 1 44 -6
7 -10 31 -8 52 3 36 5 38 40 40 44 4 62 -20 56 -73 -2 -19 -2 -34 2 -35 61 -9
73 -2 72 40 0 21 4 26 24 27 13 1 24 -2 24 -8 0 -5 -6 -6 -12 -2 -10 6 -10 5
-1 -8 7 -8 10 -17 8 -20 -3 -3 -8 -16 -10 -28 -3 -13 -10 -27 -16 -31 -12 -7
65 -25 88 -20 7 1 38 -10 68 -24 31 -14 58 -25 61 -25 3 0 12 -7 20 -15 8 -8
20 -12 28 -9 23 9 39 -23 32 -66 -6 -40 -6 -40 20 -34 23 6 26 4 21 -9 -4 -11
2 -22 17 -32 19 -13 22 -21 17 -48 -6 -29 9 -112 24 -137 3 -6 -1 -20 -9 -32
-9 -12 -16 -37 -16 -56 0 -18 -8 -47 -17 -65 -9 -18 -18 -34 -18 -37 -1 -3 -5
-13 -10 -23 -4 -10 -3 -29 4 -43 16 -36 -9 -94 -42 -94 -23 0 -117 83 -117
104 -1 6 -10 22 -21 35 -17 21 -23 23 -40 13 -29 -18 -37 -15 -79 27 -20 22
-50 43 -66 47 -16 4 -55 20 -86 35 -32 16 -67 29 -78 29 -12 0 -33 6 -49 14
-15 8 -76 19 -136 25 -64 6 -113 15 -121 23 -18 18 2 85 27 91 54 14 -15 57
-91 57 l-50 0 0 -291 0 -290 29 20 c15 11 41 37 57 57 16 20 44 55 62 77 35
43 72 112 72 135 0 11 13 13 58 9 121 -10 244 -54 250 -90 5 -26 -23 -31 -55
-9 -76 52 -110 72 -121 72 -7 0 -34 -15 -60 -34 -27 -18 -58 -37 -70 -40 -28
-9 -19 -26 13 -26 18 0 22 -4 18 -19 -7 -26 140 -101 177 -90 14 4 19 7 13 8
-16 1 -17 31 -2 31 5 0 7 -4 4 -10 -11 -17 7 -11 20 7 12 17 14 17 34 -1 25
-23 27 -63 6 -156 -8 -36 -14 -84 -15 -107 0 -31 -4 -43 -18 -47 -11 -4 -25
-17 -31 -30 -13 -24 -50 -46 -76 -46 -8 0 -15 -4 -15 -10 0 -5 -9 -19 -21 -31
-11 -11 -32 -42 -45 -67 -25 -46 -56 -101 -102 -179 -12 -21 -47 -72 -77 -113
-105 -143 -105 -143 -104 -217 l1 -68 19 40 c10 22 19 46 19 54 0 8 15 32 33
55 19 23 41 55 50 71 18 34 22 21 7 -21 l-11 -27 43 7 c90 14 298 19 298 8 0
-7 -12 -14 -27 -18 -90 -20 -124 -37 -171 -88 -61 -67 -97 -142 -112 -231 -9
-48 -20 -78 -36 -95 -32 -35 -64 -108 -64 -149 0 -23 -8 -41 -25 -57 l-25 -23
0 -1366 0 -1365 4720 0 4720 0 0 80 0 80 320 0 320 0 0 -80 0 -80 80 0 80 0 0
5120 0 5120 -5120 0 -5120 0 0 -2270z m3227 2095 c144 -34 301 -144 405 -284
49 -65 121 -215 143 -296 16 -61 22 -259 8 -312 -4 -19 -3 -24 7 -18 9 6 10 3
1 -13 -6 -11 -11 -32 -11 -46 0 -26 -50 -170 -56 -163 -2 2 3 28 12 58 22 73
20 144 -6 204 -12 28 -28 69 -36 92 -8 23 -41 95 -73 160 -32 65 -68 145 -82
178 -46 115 -187 224 -336 260 -84 20 -173 15 -292 -16 -101 -27 -115 -35
-231 -127 -3 -2 -5 -30 -5 -63 -1 -56 7 -74 19 -46 3 6 3 2 0 -10 -3 -13 -1
-23 5 -23 6 0 11 5 11 10 0 6 7 10 15 10 10 0 15 -10 15 -30 0 -20 5 -30 15
-30 8 0 15 -7 15 -15 0 -23 16 -18 36 13 9 15 25 32 33 39 14 11 13 12 -6 13
-14 0 -23 6 -23 16 0 8 -4 13 -9 10 -5 -3 -11 0 -14 8 -3 8 8 19 28 29 28 13
35 14 45 3 6 -8 9 -18 8 -23 -2 -5 12 -22 30 -38 18 -17 34 -40 35 -52 3 -42
16 -24 14 20 -2 37 1 42 21 45 30 4 59 -21 67 -58 3 -16 13 -34 21 -40 7 -7
12 -16 9 -20 -5 -8 24 -22 36 -17 13 5 38 -26 44 -56 11 -51 73 -104 76 -64 0
10 2 10 6 0 2 -7 15 -13 28 -13 13 0 27 -5 30 -10 4 -6 16 -8 27 -4 17 5 20 3
15 -10 -11 -27 3 -45 39 -52 41 -8 84 -39 84 -62 0 -8 5 -31 12 -49 10 -26 9
-45 -1 -91 -6 -31 -14 -68 -17 -81 -3 -13 -10 -34 -17 -45 -6 -12 -10 -24 -9
-28 2 -8 -13 -11 -50 -11 -23 0 -23 -5 3 -25 28 -24 17 -45 -39 -71 -26 -12
-55 -26 -64 -32 -10 -5 -33 -9 -52 -9 -19 0 -38 -4 -41 -10 -12 -19 -57 -10
-81 16 -13 14 -29 22 -34 19 -6 -3 -10 1 -10 11 0 14 -7 15 -40 10 -34 -5 -40
-4 -40 11 0 14 -2 15 -9 4 -7 -11 -11 -9 -21 8 -6 13 -9 29 -6 36 3 8 0 16 -7
18 -9 3 -9 9 0 25 11 19 10 23 -10 34 -21 12 -27 14 -54 17 -7 0 -13 6 -13 12
0 6 7 9 15 5 8 -3 15 -2 15 2 0 13 -23 32 -40 32 -21 0 -90 61 -90 80 0 8 -14
23 -31 32 -17 10 -27 23 -24 28 12 19 -36 51 -66 45 -23 -5 -30 -2 -43 23 -8
16 -27 37 -41 46 -30 20 -109 24 -130 6 -13 -11 -15 -1 -15 81 1 183 37 301
136 450 42 64 107 129 127 129 5 0 30 15 56 33 58 42 135 74 203 86 84 14 237
12 305 -4z m47 -624 c15 -16 15 -19 1 -31 -20 -17 -45 3 -38 30 7 25 15 25 37
1z m-47 -1063 c2 -108 4 -125 21 -138 30 -25 36 -56 13 -72 -18 -13 -23 -38
-32 -178 -1 -17 -3 -20 -6 -7 -5 18 -28 23 -38 8 -10 -18 -14 -111 -4 -111 6
0 9 8 8 18 -2 9 1 34 5 56 7 37 8 38 22 17 8 -11 12 -26 9 -31 -12 -19 6 -32
19 -14 9 12 15 14 20 6 11 -18 39 -15 33 2 -4 10 -1 13 8 10 12 -5 13 5 8 59
-3 38 -2 67 4 70 15 10 27 -182 12 -199 -8 -10 -8 -18 -1 -26 5 -7 9 -29 7
-48 -1 -19 -4 -48 -5 -65 -2 -30 -2 -30 -10 -5 -4 14 -8 51 -9 83 -1 66 -21
78 -41 25 -7 -18 -14 -27 -17 -20 -2 6 -9 12 -15 12 -10 0 -6 -119 8 -215 6
-44 6 -49 -8 -37 -13 10 -16 8 -21 -18 -7 -35 -13 -36 -46 -11 -20 15 -23 26
-23 82 0 106 0 109 23 109 11 0 17 4 14 10 -4 6 -1 17 5 25 7 8 10 20 7 27 -3
7 -10 -1 -17 -19 -17 -45 -30 -41 -31 10 0 23 -3 51 -6 62 -2 11 -4 44 -4 73
1 44 -1 52 -15 50 -12 -2 -20 7 -25 27 -16 57 -28 169 -20 184 5 9 11 53 15
99 6 75 5 83 -11 80 -12 -2 -19 6 -23 27 -4 17 -12 40 -18 52 -20 36 -15 44
21 38 17 -3 50 -2 72 3 22 6 51 10 65 11 l25 1 2 -122z m5 -1023 c-3 -35 -5
-100 -3 -132 0 -14 7 -23 17 -23 27 0 9 -25 -20 -28 -19 -2 -36 4 -52 19 -28
26 -30 36 -9 59 9 10 19 34 22 55 6 36 5 37 -15 24 -34 -21 -37 -3 -6 31 38
40 70 38 66 -5z m-163 -87 c8 -14 11 -32 8 -42 -6 -15 -8 -15 -25 1 -12 12
-14 21 -8 25 7 5 7 11 -2 20 -6 6 -12 16 -12 21 0 16 25 1 39 -25z m91 -124
c0 -2 -9 -4 -21 -4 -11 0 -18 4 -14 10 5 8 35 3 35 -6z m5255 -965 c14 -22 -3
-18 -26 7 -23 25 -23 26 -2 15 12 -6 25 -16 28 -22z m-4375 -49 c0 -5 -2 -10
-4 -10 -3 0 -8 5 -11 10 -3 6 -1 10 4 10 6 0 11 -4 11 -10z m3708 -12 c-6 -18
-28 -21 -28 -4 0 9 7 16 16 16 9 0 14 -5 12 -12z m-59 -63 c1 -36 -13 -60 -28
-51 -14 9 -14 57 0 93 10 26 12 27 19 8 5 -11 9 -33 9 -50z m-3975 -1 c-3 -50
-24 -118 -44 -136 -18 -16 -18 -15 -25 32 -11 83 12 142 54 135 11 -1 16 -12
15 -31z m4786 15 c0 -6 7 -17 15 -25 8 -9 16 -31 17 -50 0 -19 1 -40 2 -46 2
-24 -28 -13 -34 12 -13 49 -19 131 -10 125 6 -4 10 -11 10 -16z m-4085 -33
c176 -50 199 -57 400 -111 326 -88 393 -109 415 -133 23 -24 40 -29 123 -35
64 -4 87 -18 69 -40 -7 -8 -9 -16 -6 -20 3 -3 -4 -15 -15 -26 -15 -15 -37 -22
-76 -25 -55 -4 -55 -4 -55 25 0 29 -25 48 -70 53 -8 1 -29 9 -47 19 -17 9 -51
18 -75 21 -24 2 -71 13 -106 25 -35 12 -67 19 -72 16 -5 -3 -11 -1 -14 4 -4 5
-31 15 -62 21 -31 7 -64 20 -74 30 -13 13 -30 18 -54 15 -26 -2 -43 3 -63 21
-15 13 -35 24 -43 25 -8 1 -24 2 -35 3 -11 0 -19 6 -18 13 2 9 -4 10 -21 3
-19 -7 -33 -3 -68 20 -23 15 -76 38 -115 49 -40 12 -85 33 -100 47 l-28 25 40
-4 c22 -2 99 -21 170 -41z m-1915 24 c0 -5 -9 -14 -20 -20 -24 -13 -26 -7 -4
14 18 18 24 20 24 6z m81 -40 c28 -16 23 -34 -16 -67 -20 -15 -55 -47 -79 -70
-23 -24 -83 -64 -132 -89 -49 -25 -105 -58 -124 -73 -19 -15 -42 -30 -50 -34
-8 -4 -28 -16 -45 -27 -27 -18 -152 -80 -161 -80 -11 0 -114 -113 -114 -126 0
-9 -32 -30 -82 -54 -89 -42 -111 -40 -107 9 2 14 -3 36 -10 49 -14 27 -6 62
15 62 8 0 42 14 75 31 35 19 77 32 100 33 21 0 39 6 39 12 0 11 99 64 119 64
5 0 14 6 18 14 4 7 38 28 75 45 37 18 78 43 92 56 14 13 42 27 61 31 19 3 35
10 35 15 0 5 7 9 16 9 8 0 29 13 47 30 18 16 35 30 39 30 4 0 28 20 55 45 26
24 52 45 57 45 4 0 17 11 28 25 22 29 23 29 49 15z m5232 -16 c3 -4 2 -15 -4
-26 -8 -15 -13 -17 -24 -8 -11 9 -12 15 -2 25 13 16 21 18 30 9z m-240 -71
c23 -5 28 -10 25 -32 -2 -17 -10 -27 -23 -29 -38 -7 -40 -22 -2 -22 24 0 44 7
57 20 25 25 70 27 71 3 4 -51 -16 -74 -76 -91 -23 -6 -59 -27 -82 -47 -23 -19
-45 -35 -50 -35 -5 0 -27 -16 -49 -35 -21 -19 -43 -35 -47 -35 -17 0 -19 34
-5 78 13 42 17 47 44 47 38 1 82 23 90 47 8 27 1 32 -48 30 -56 -3 -108 -20
-108 -37 0 -10 -8 -9 -35 4 l-36 16 28 10 c15 5 47 20 70 33 23 12 55 22 70
22 22 0 28 5 30 23 1 12 5 40 9 62 l7 40 16 -33 c10 -23 24 -35 44 -39z
m-4903 31 c0 -16 -16 -19 -25 -4 -8 13 4 32 16 25 5 -4 9 -13 9 -21z m1430 -3
c0 -5 -7 -14 -15 -21 -16 -14 -18 -10 -9 14 6 17 24 22 24 7z m-1409 -48 c-12
-20 -14 -14 -5 12 4 9 9 14 11 11 3 -2 0 -13 -6 -23z m5989 -4 c0 -5 5 -7 11
-3 36 22 -56 -159 -109 -215 -33 -35 -38 -38 -23 -14 22 32 21 83 -1 83 -6 0
-5 7 2 15 7 9 19 14 26 11 9 -3 17 9 25 37 16 59 37 97 54 97 8 0 15 -5 15
-11z m-1240 -9 c0 -5 -9 -10 -21 -10 -11 0 -17 5 -14 10 3 6 13 10 21 10 8 0
14 -4 14 -10z m-4750 -19 c0 -14 -12 -20 -26 -14 -22 8 -17 32 6 26 11 -3 20
-9 20 -12z m5098 -19 c4 -27 -28 -31 -49 -6 -10 13 -10 17 2 25 22 14 44 6 47
-19z m799 -12 c9 -13 9 -21 2 -26 -13 -7 -15 -5 -23 24 -9 27 5 29 21 2z
m-5527 0 c0 -5 -2 -10 -4 -10 -3 0 -8 5 -11 10 -3 6 -1 10 4 10 6 0 11 -4 11
-10z m4840 -15 c14 -16 7 -45 -11 -45 -6 0 -13 9 -16 20 -3 11 -9 20 -14 20
-5 0 -9 5 -9 10 0 15 36 12 50 -5z m-4390 -53 c0 -4 -6 -14 -12 -20 -10 -10
-10 -17 0 -32 10 -17 10 -20 -3 -20 -16 0 -19 20 -9 58 6 21 24 32 24 14z
m1540 -36 c0 -3 -4 -8 -10 -11 -5 -3 -10 -1 -10 4 0 6 5 11 10 11 6 0 10 -2
10 -4z m145 -54 c0 -18 -20 -15 -23 4 -3 10 1 15 10 12 7 -3 13 -10 13 -16z
m265 -3 c0 -6 -4 -7 -10 -4 -5 3 -10 11 -10 16 0 6 5 7 10 4 6 -3 10 -11 10
-16z m-2161 -5 c10 -9 -6 -12 -31 -7 -16 3 -28 9 -28 14 0 8 48 2 59 -7z m497
-61 c-3 -10 -12 -45 -21 -78 -20 -73 -45 -135 -56 -135 -17 0 -19 39 -4 80 8
24 12 46 7 49 -17 12 -20 51 -5 66 18 18 40 19 46 3 4 -8 8 -4 12 10 4 12 12
22 17 22 5 0 7 -8 4 -17z m-176 -88 c0 -20 -5 -41 -10 -48 -6 -7 -26 -33 -45
-58 -42 -57 -135 -113 -185 -111 -28 1 -44 11 -79 48 -39 42 -71 97 -71 122 0
5 17 12 38 15 97 16 260 47 287 56 56 18 65 14 65 -24z m2754 -14 c7 -11 -3
-41 -14 -41 -10 0 -20 37 -12 44 8 9 20 7 26 -3z m-179 -42 c-3 -42 -15 -67
-15 -31 0 11 -4 24 -10 27 -18 11 -11 45 9 45 16 0 19 -6 16 -41z m-180 5 c28
-1 55 2 61 7 7 6 20 -6 37 -32 15 -22 27 -45 27 -50 0 -4 8 -13 18 -18 21 -11
57 -116 45 -134 -4 -6 -8 -19 -8 -27 -5 -56 -4 -55 -17 -38 -7 9 -23 19 -35
23 -19 5 -25 1 -33 -19 -13 -34 -39 -33 -51 2 -8 23 -15 27 -43 26 -18 -1 -47
-5 -64 -9 -82 -18 -165 104 -101 149 15 10 20 21 16 36 -3 13 0 23 9 27 8 3
14 11 14 17 0 7 11 19 25 26 14 7 25 17 25 22 0 5 6 6 13 1 6 -4 35 -8 62 -9z
m907 -46 c-7 -7 -12 -8 -12 -2 0 14 12 26 19 19 2 -3 -1 -11 -7 -17z m-22 -8
c0 -5 -4 -10 -10 -10 -5 0 -10 5 -10 10 0 6 5 10 10 10 6 0 10 -4 10 -10z
m-340 -11 c0 -5 10 -9 22 -7 18 2 24 -3 28 -27 5 -28 9 -30 44 -28 24 2 44 -3
54 -14 10 -9 16 -18 15 -20 -8 -9 -1 -23 11 -23 15 0 26 -30 26 -72 0 -31 3
-32 73 -28 26 1 47 -2 47 -7 0 -5 11 -16 25 -23 14 -7 25 -19 25 -27 0 -17 47
-17 53 0 4 7 6 6 6 -4 1 -9 -6 -22 -14 -29 -11 -9 -13 -16 -5 -24 5 -5 10 -18
10 -28 0 -10 5 -18 10 -18 15 0 12 -26 -4 -39 -8 -7 -13 -20 -11 -29 2 -9 4
-20 4 -24 1 -4 12 -19 26 -34 17 -19 29 -24 37 -17 17 13 58 14 58 2 0 -5 -7
-9 -15 -9 -8 0 -15 -4 -15 -10 0 -5 -6 -10 -14 -10 -15 0 -46 -52 -46 -76 0
-20 -16 -25 -59 -18 -24 4 -41 12 -41 20 0 21 -50 54 -76 50 -15 -3 -24 0 -24
8 0 15 -48 19 -65 6 -5 -4 -22 -10 -36 -14 -17 -4 -33 -18 -43 -41 -9 -19 -22
-35 -27 -35 -6 0 -17 -7 -26 -15 -8 -8 -19 -13 -24 -10 -5 4 -9 2 -9 -4 0 -6
-11 -18 -25 -27 -22 -14 -30 -15 -84 -1 -34 9 -71 23 -83 31 -12 9 -32 16 -43
16 -11 1 -35 14 -54 30 -23 19 -38 26 -46 20 -16 -13 -66 33 -66 62 -1 61 -12
117 -24 121 -7 3 -26 -8 -44 -23 -17 -16 -31 -25 -31 -21 0 5 6 14 14 20 8 7
12 20 9 30 -3 11 3 26 14 35 59 52 92 76 106 76 23 0 25 33 4 50 -16 13 -16
17 -4 35 13 16 17 17 31 6 15 -13 16 -11 8 10 -5 13 -7 30 -4 38 3 10 0 11 -9
5 -12 -7 -12 -5 0 9 7 9 22 17 33 17 11 0 34 15 51 33 16 17 33 31 37 30 3 -1
12 14 19 33 12 33 14 34 64 34 29 0 59 5 67 10 20 13 40 13 40 -1z m308 -139
c23 0 25 -2 11 -15 -12 -12 -21 -13 -47 -4 -18 6 -29 15 -26 21 3 5 13 7 21 4
8 -3 26 -6 41 -6z m478 -168 c-11 -10 -14 3 -8 33 l7 30 3 -28 c2 -16 1 -31
-2 -35z m-1223 11 c-9 -22 -23 -14 -23 12 0 21 2 24 14 13 7 -7 11 -19 9 -25z
m-135 -6 c13 -15 4 -31 -21 -40 -11 -4 -20 -1 -23 8 -14 35 21 60 44 32z
m-4928 -173 c0 -8 6 -14 14 -14 8 0 18 -4 21 -10 9 -15 -4 -32 -18 -23 -7 4
-16 8 -22 9 -5 0 -15 2 -21 2 -16 3 -23 36 -12 56 8 14 13 15 24 5 8 -6 14
-18 14 -25z m5040 -39 c0 -8 -7 -15 -15 -15 -16 0 -20 12 -8 23 11 12 23 8 23
-8z m-40 -63 c0 -27 6 -45 22 -58 12 -10 18 -14 15 -7 -11 18 9 25 23 8 7 -8
10 -15 7 -15 -3 0 0 -24 7 -54 11 -45 11 -53 -1 -52 -20 3 -95 119 -82 127 8
5 8 9 0 13 -14 9 -15 76 -1 76 6 0 10 -17 10 -38z m-4680 -4 c0 -6 -7 -5 -15
2 -8 7 -15 17 -15 22 0 6 7 5 15 -2 8 -7 15 -17 15 -22z m4730 28 c0 -3 -4 -8
-10 -11 -5 -3 -10 -1 -10 4 0 6 5 11 10 11 6 0 10 -2 10 -4z m-5133 -51 c0 -8
-4 -12 -9 -9 -5 3 -6 10 -3 15 9 13 12 11 12 -6z m208 -25 c3 -5 2 -10 -4 -10
-5 0 -13 5 -16 10 -3 6 -2 10 4 10 5 0 13 -4 16 -10z m5939 -6 c3 -8 2 -12 -4
-9 -6 3 -10 10 -10 16 0 14 7 11 14 -7z m-5785 -36 c10 -26 -2 -38 -36 -38
-29 0 -29 14 -1 40 27 25 27 25 37 -2z m4246 -88 c-9 -14 -41 -12 -52 3 -10
13 -10 30 2 65 7 22 9 22 32 -17 13 -23 21 -46 18 -51z m1707 -26 c16 -34 40
-72 54 -85 26 -25 31 -39 12 -39 -29 0 -105 122 -121 195 -7 29 -7 29 9 10 9
-11 29 -48 46 -81z m-5812 42 c0 -8 6 -16 13 -19 9 -3 9 -9 0 -28 -6 -13 -14
-36 -17 -51 -4 -15 -16 -32 -27 -39 -19 -10 -20 -9 -14 11 5 15 3 20 -3 16
-15 -9 -26 14 -13 27 6 6 11 20 11 32 0 23 26 65 41 65 5 0 9 -6 9 -14z m-350
-6 c0 -5 -5 -10 -11 -10 -5 0 -7 5 -4 10 3 6 8 10 11 10 2 0 4 -4 4 -10z
m5591 -41 c11 -18 2 -29 -23 -29 -11 0 -31 -9 -45 -20 -17 -13 -41 -20 -69
-20 -31 0 -50 -6 -65 -21 -30 -30 -34 -17 -5 18 25 30 25 43 1 43 -7 0 -30
-16 -51 -35 -20 -19 -39 -33 -42 -31 -3 3 41 80 55 96 6 7 154 18 197 15 21
-2 42 -9 47 -16z m112 -84 c9 -20 17 -60 17 -89 0 -79 19 -251 35 -320 8 -34
15 -80 15 -103 0 -33 5 -45 27 -61 l28 -20 -28 -56 c-15 -31 -27 -62 -27 -69
0 -7 -5 -18 -12 -25 -9 -9 -19 -5 -45 20 -18 18 -33 37 -33 44 0 7 -11 26 -26
43 -14 17 -24 36 -22 43 1 7 -4 24 -12 38 -8 14 -15 45 -16 70 -1 25 -14 103
-28 173 -28 140 -33 212 -14 223 20 12 58 11 58 -3 0 -6 11 -25 25 -40 18 -21
24 -24 25 -12 0 9 6 22 14 28 17 14 11 69 -10 112 -12 24 -10 39 6 39 3 0 14
-16 23 -35z m-315 -59 c-16 -29 -77 -81 -85 -72 -7 7 76 96 89 96 5 0 3 -11
-4 -24z m-5278 -61 c27 -32 -70 -91 -100 -61 -18 18 -11 41 18 58 34 22 66 23
82 3z m202 -57 c-7 -7 -12 -8 -12 -2 0 14 12 26 19 19 2 -3 -1 -11 -7 -17z
m4673 -42 c10 -47 9 -60 -4 -79 -8 -12 -18 -24 -22 -27 -3 -3 -18 -28 -32 -56
-28 -56 -51 -79 -67 -69 -16 10 -12 27 20 106 17 41 33 99 36 129 6 52 8 55
32 54 23 -1 27 -7 37 -58z m443 -58 c-3 -96 -2 -101 22 -120 21 -17 24 -28 24
-73 -1 -41 2 -52 13 -48 10 4 8 -8 -7 -43 -16 -36 -19 -54 -11 -73 13 -37 23
-89 26 -139 2 -24 4 -45 6 -47 2 -2 27 3 55 10 142 37 263 25 394 -38 61 -30
70 -32 64 -15 -4 13 1 25 13 34 44 33 109 67 137 71 16 1 32 7 36 12 3 5 18
13 33 16 15 4 43 15 63 26 29 14 40 16 55 6 20 -13 36 -64 23 -77 -5 -5 -65
-31 -134 -59 -69 -28 -140 -58 -159 -67 l-34 -15 26 -27 c67 -72 110 -222 101
-351 -4 -47 -12 -99 -19 -116 -11 -27 -12 -23 -7 38 4 51 1 76 -12 100 -9 18
-24 54 -34 82 -12 35 -28 56 -52 72 -19 12 -39 27 -43 32 -5 5 -19 20 -31 34
-13 14 -38 26 -63 30 -47 8 -80 34 -64 50 14 14 -50 47 -92 47 -43 0 -176 -34
-218 -56 -53 -27 -136 -117 -148 -159 -11 -41 -5 -63 12 -46 17 17 33 13 46
-12 7 -13 28 -31 47 -39 34 -16 35 -16 50 13 22 43 46 38 42 -8 -3 -33 -6 -38
-26 -35 -22 3 -23 1 -17 -27 4 -17 1 -47 -5 -66 -9 -27 -9 -39 0 -50 14 -16
33 -10 68 21 14 13 32 24 41 24 13 0 13 2 2 9 -7 5 -21 7 -30 4 -26 -7 -64 28
-55 50 5 13 13 17 30 13 22 -6 22 -4 17 49 -4 37 -2 60 7 70 20 24 30 18 30
-20 0 -57 48 -134 74 -118 4 3 2 9 -5 14 -12 8 -11 11 1 19 21 14 30 12 30 -4
0 -10 7 -12 22 -8 19 5 20 6 4 12 -15 5 -14 8 9 18 35 16 62 15 69 -3 3 -8 1
-15 -4 -15 -5 0 -2 -9 7 -20 18 -21 43 -27 43 -10 0 5 14 8 32 6 45 -5 72 -48
82 -132 1 -11 6 -25 10 -32 4 -7 3 -12 -3 -12 -6 0 -20 -33 -32 -72 -18 -63
-27 -77 -63 -105 -23 -18 -61 -39 -83 -47 -38 -13 -42 -13 -48 2 -3 10 -9 12
-13 7 -8 -12 -62 -17 -62 -6 0 4 -20 12 -44 20 -33 9 -50 22 -70 53 -14 22
-26 44 -26 49 0 5 -4 17 -9 27 -31 62 -51 115 -46 123 4 5 -5 9 -18 9 -13 0
-27 3 -31 7 -4 4 -21 8 -39 9 -23 1 -40 12 -67 43 -36 43 -64 52 -74 25 -4
-10 -13 -13 -27 -9 -18 6 -20 4 -15 -13 4 -11 3 -23 -2 -26 -14 -9 -35 109
-29 158 9 61 72 212 113 266 18 25 49 56 68 70 20 14 36 31 36 38 0 8 -13 52
-30 99 -21 60 -30 103 -30 148 0 35 -5 65 -10 67 -13 4 -20 98 -8 98 9 0 38
54 38 70 0 7 -15 3 -36 -10 -22 -12 -43 -18 -53 -14 -9 4 -22 6 -29 5 -21 -3
-3 52 24 72 13 10 24 24 24 32 0 7 7 18 15 25 8 7 15 27 15 46 0 39 24 58 53
42 17 -9 19 -20 15 -110z m-5983 51 c11 -17 -1 -21 -15 -4 -8 9 -8 15 -2 15 6
0 14 -5 17 -11z m7600 -46 c65 -23 223 -172 256 -241 41 -88 41 -240 -1 -321
-45 -89 -144 -173 -191 -164 -17 3 -35 -3 -55 -20 -36 -30 -70 -48 -98 -52
-98 -13 -145 -15 -171 -7 -26 8 -22 9 38 15 38 3 96 14 130 24 69 19 181 80
214 115 54 59 74 208 44 324 -25 97 -52 145 -113 198 -82 71 -162 91 -248 61
-45 -16 -110 -20 -110 -7 0 22 163 90 220 91 19 1 58 -7 85 -16z m-7349 -197
l6 -26 -33 31 c-25 23 -30 32 -19 39 17 10 37 -9 46 -44z m-176 -12 c38 -33
67 -87 81 -156 13 -61 28 -95 29 -64 0 32 9 13 20 -43 11 -61 2 -93 -19 -67
-8 9 -18 16 -24 16 -19 0 -47 33 -47 55 0 18 -64 221 -84 268 -12 25 7 21 44
-9z m-102 -134 c2 -14 10 -44 19 -66 8 -23 13 -50 11 -60 -3 -16 -7 -14 -21
11 -9 17 -17 26 -17 20 -1 -5 -7 4 -15 20 -10 24 -14 26 -14 10 -1 -17 -4 -15
-16 8 -18 36 -17 81 2 65 10 -8 13 -6 13 7 0 27 35 13 38 -15z m3107 -59 c32
-14 43 -26 48 -47 5 -27 71 -104 88 -104 12 0 49 -76 49 -100 0 -27 -17 -17
-33 20 -8 19 -17 26 -28 21 -15 -5 -15 -11 -3 -56 26 -93 28 -115 12 -115 -9
0 -18 12 -21 29 -4 20 -14 31 -32 35 -15 4 -25 13 -25 24 0 10 -7 27 -15 38
-19 26 -19 32 5 39 48 15 4 105 -70 143 -61 30 -185 32 -223 2 -14 -11 -33
-20 -42 -20 -18 0 -75 -55 -75 -73 0 -6 7 -18 15 -27 17 -19 10 -54 -9 -43 -6
4 -5 -1 3 -11 10 -12 11 -20 3 -28 -15 -15 -33 0 -31 25 3 45 0 52 -14 32 -19
-25 -40 -10 -32 22 17 68 48 112 108 154 35 25 71 42 84 41 13 -1 23 2 23 7 0
27 150 21 215 -8z m4470 -21 c0 -7 -6 -15 -12 -17 -7 -3 -13 0 -13 6 0 6 -7
11 -15 11 -8 0 -15 6 -15 14 0 11 7 12 28 7 15 -4 27 -13 27 -21z m-19 -59 c1
-13 6 -26 11 -30 12 -7 0 -45 -16 -56 -6 -3 -18 1 -27 9 -22 22 -55 20 -61 -3
-5 -21 -50 -41 -89 -41 -33 0 -32 34 2 83 21 32 30 37 58 35 18 -1 43 6 57 15
33 24 64 18 65 -12z m-7470 -112 c3 -5 16 -9 30 -9 13 0 34 -6 45 -12 15 -9
23 -10 26 -2 2 6 9 19 16 28 12 16 13 16 14 -1 10 -132 6 -143 -48 -120 -19 8
-56 17 -82 21 -72 11 -97 48 -60 93 16 20 47 21 59 2z m2921 -45 c2 -6 -15
-19 -37 -29 -22 -10 -52 -29 -67 -42 -14 -14 -33 -23 -43 -20 -22 6 -42 -27
-34 -57 8 -33 -23 -81 -42 -65 -8 6 -11 16 -7 23 4 7 1 6 -7 -1 -11 -10 -11
-18 -1 -39 10 -23 9 -26 -4 -21 -8 4 -15 1 -16 -6 0 -7 -3 -5 -6 3 -3 8 -21
29 -40 47 -30 28 -34 37 -31 74 4 56 28 72 61 41 32 -30 77 -30 77 1 0 12 7
32 15 45 15 20 15 21 -2 16 -16 -5 -16 -4 1 10 10 8 23 13 28 10 4 -3 15 1 23
9 17 18 126 18 132 1z m4228 -60 c77 -23 84 -30 41 -38 -46 -9 -107 8 -146 40
-40 35 -38 45 8 29 20 -7 64 -21 97 -31z m-6968 -114 c9 -18 9 -26 1 -31 -7
-5 -3 -17 13 -37 29 -38 39 -39 39 -8 0 20 16 36 36 36 9 0 44 -87 44 -111 0
-15 5 -29 11 -31 12 -4 13 -238 1 -248 -10 -7 -9 -70 2 -70 4 0 3 -7 -4 -15
-24 -29 -38 -17 -45 39 -7 56 -28 89 -65 101 -11 3 -20 11 -20 16 0 6 -8 9
-18 7 -9 -1 -33 8 -52 22 -19 14 -46 25 -59 25 -13 0 -26 6 -29 14 -3 9 0 11
9 6 7 -5 0 8 -16 29 -15 20 -24 36 -19 35 44 -8 63 17 70 89 5 53 10 60 26 44
19 -19 28 -14 42 20 9 22 11 40 5 56 -5 13 -9 28 -9 33 0 18 24 4 37 -21z
m2830 -147 c17 -27 67 -87 110 -134 118 -129 285 -351 273 -363 -6 -6 -18 -2
-33 12 -33 32 -45 27 -15 -5 14 -16 28 -36 31 -46 28 -77 -176 163 -321 380
-34 50 -66 94 -72 98 -12 7 -13 35 -2 35 5 0 14 -11 20 -25 6 -13 31 -48 54
-77 24 -29 52 -66 64 -82 13 -18 26 -26 33 -22 9 6 9 11 0 22 -6 7 -15 11 -20
8 -5 -3 -10 1 -10 8 -1 7 -2 18 -3 25 -2 17 -116 153 -129 153 -18 0 -36 34
-25 47 6 7 11 13 13 13 1 0 15 -21 32 -47z m-22 -144 c50 -61 105 -129 123
-152 18 -23 57 -69 85 -101 59 -67 147 -186 147 -199 0 -9 -10 -4 -52 25 -30
21 -42 23 -32 7 4 -7 -7 -4 -25 7 -31 18 -41 34 -20 34 5 0 7 5 3 11 -4 8 -9
7 -15 -2 -6 -11 -14 -8 -34 11 -26 24 -82 116 -64 105 5 -4 9 -2 9 2 0 12
-127 204 -184 278 -43 56 -56 86 -38 84 4 0 48 -50 97 -110z m2775 -40 c0 -5
-4 -9 -10 -9 -5 0 -10 7 -10 16 0 8 5 12 10 9 6 -3 10 -10 10 -16z m150 -28
c0 -6 -4 -13 -10 -16 -5 -3 -10 1 -10 9 0 9 5 16 10 16 6 0 10 -4 10 -9z
m-5930 -48 c0 -2 -11 -16 -25 -30 -31 -34 -51 -81 -39 -92 5 -5 19 -12 32 -16
19 -5 22 -3 22 19 0 19 7 27 25 32 31 8 35 4 39 -32 2 -16 9 -29 17 -29 16 -1
13 -26 -4 -38 -9 -6 -9 -10 1 -14 6 -2 12 -16 12 -29 0 -14 7 -36 17 -50 16
-25 16 -26 -32 -69 -26 -24 -60 -46 -76 -49 -97 -19 -90 -14 -85 -54 4 -39 -7
-62 -31 -62 -7 0 -13 6 -11 13 5 26 -32 64 -70 71 -28 4 -47 17 -81 57 -36 42
-44 58 -45 96 -2 55 -34 86 -79 77 -38 -8 -57 11 -57 56 0 30 6 43 26 59 34
27 38 26 67 -5 18 -20 32 -25 58 -22 19 2 34 8 34 13 0 21 46 73 75 85 37 15
45 9 42 -33 -2 -38 11 -63 27 -52 7 4 10 18 6 35 -7 30 13 45 46 35 11 -4 21
1 28 13 9 16 61 29 61 15z m5655 -13 c-3 -5 -16 -10 -28 -10 -18 0 -19 2 -7
10 20 13 43 13 35 0z m42 4 c-3 -3 -12 -4 -19 -1 -8 3 -5 6 6 6 11 1 17 -2 13
-5z m-2602 -84 c3 -5 1 -10 -4 -10 -6 0 -11 5 -11 10 0 6 2 10 4 10 3 0 8 -4
11 -10z m-2790 -99 c-3 -6 -11 -11 -17 -11 -6 0 -6 6 2 15 14 17 26 13 15 -4z
m5701 -66 l59 -24 -43 -1 c-49 0 -82 14 -82 35 0 19 -4 19 66 -10z m-890 -52
c-10 -10 -19 5 -10 18 6 11 8 11 12 0 2 -7 1 -15 -2 -18z m1047 16 c39 -11 47
-28 22 -49 -22 -18 -94 14 -92 41 1 22 16 23 70 8z m-5813 -30 c0 -10 10 -47
21 -81 20 -59 33 -78 120 -182 l32 -38 -31 16 c-17 9 -38 16 -47 16 -8 0 -24
9 -34 19 -11 11 -21 18 -23 17 -1 -2 -16 -6 -32 -10 -28 -7 -28 -7 -21 31 4
21 11 43 16 50 9 10 -4 48 -22 63 -3 3 -11 25 -17 50 -9 37 -8 47 5 62 18 20
33 15 33 -13z m4803 -56 c32 -90 21 -105 -90 -118 -113 -13 -841 -188 -918
-220 -22 -10 -61 -23 -87 -30 -40 -10 -48 -10 -48 1 0 17 -24 18 -51 4 -13 -7
-19 -7 -19 0 0 30 -76 -6 -89 -42 -11 -30 -45 -52 -68 -44 -9 4 -24 -1 -33 -9
-23 -21 -78 -36 -85 -24 -4 5 1 12 9 15 14 5 13 9 -1 31 -14 21 -14 26 -2 34
20 13 31 11 23 -3 -5 -10 -4 -10 6 -1 10 9 17 7 33 -8 11 -10 24 -19 29 -19
13 0 9 28 -4 33 -25 8 23 47 59 47 23 0 33 5 33 15 0 9 9 15 24 15 13 0 29 6
35 14 10 12 6 15 -18 21 -65 14 -58 45 18 73 42 16 194 51 200 46 2 -2 -2 -10
-9 -19 -15 -19 -14 -19 84 0 95 18 106 25 43 25 -26 0 -47 5 -47 10 0 6 8 10
18 10 9 0 24 5 32 10 13 8 12 11 -5 24 -26 20 -15 20 46 0 49 -16 61 -28 37
-37 -7 -2 -10 -8 -6 -11 9 -11 98 30 98 45 0 8 12 10 37 6 36 -6 150 12 227
35 21 7 50 12 65 13 19 0 26 5 26 19 0 10 10 25 23 34 20 13 22 13 22 -7 0
-28 39 -32 69 -8 8 7 24 12 35 12 12 1 27 4 34 8 6 5 12 4 12 -1 0 -6 28 -2
63 9 34 11 72 17 85 14 15 -4 22 -1 22 10 0 30 16 14 33 -32z m-574 -36 c13
-16 5 -27 -20 -27 -12 0 -16 6 -12 20 6 23 16 25 32 7z m-159 -27 c13 -7 21
-7 25 0 4 6 11 7 18 3 11 -7 -44 -31 -75 -32 -30 -2 -21 30 10 38 2 1 12 -4
22 -9z m-353 -86 c-3 -3 -12 -4 -19 -1 -8 3 -5 6 6 6 11 1 17 -2 13 -5z m-47
-9 c0 -9 -70 -23 -90 -18 -35 9 -11 23 41 23 27 0 49 -2 49 -5z m-160 -35 c0
-5 -4 -10 -10 -10 -5 0 -10 5 -10 10 0 6 5 10 10 10 6 0 10 -4 10 -10z m-3536
-32 c-3 -39 -16 -68 -30 -68 -19 0 -18 26 3 61 21 35 30 37 27 7z m3482 7
c-22 -17 -66 -20 -66 -6 0 11 23 18 60 20 24 0 24 0 6 -14z m-1161 -31 c26
-17 33 -49 13 -57 -23 -8 -67 31 -61 53 6 24 16 25 48 4z m765 -13 c0 -11 -4
-23 -10 -26 -14 -9 -13 -51 2 -75 18 -28 -1 -39 -22 -12 -20 25 -20 50 1 100
15 36 29 42 29 13z m370 -52 c0 -6 -4 -7 -10 -4 -5 3 -10 11 -10 16 0 6 5 7
10 4 6 -3 10 -11 10 -16z m-3470 -29 c0 -5 -2 -10 -4 -10 -3 0 -8 5 -11 10 -3
6 -1 10 4 10 6 0 11 -4 11 -10z m2986 -47 c-12 -12 -29 15 -21 34 7 17 8 16
18 -5 5 -12 7 -25 3 -29z m674 -3 c0 -5 -7 -10 -16 -10 -8 0 -12 5 -9 10 3 6
10 10 16 10 5 0 9 -4 9 -10z m-540 -30 c9 -6 14 -24 14 -50 -1 -35 1 -40 20
-40 11 1 41 20 65 45 38 37 50 43 80 41 32 -2 36 -5 33 -27 -5 -45 -1 -84 13
-140 28 -107 14 -207 -31 -228 -42 -19 -82 7 -54 35 6 6 13 40 17 77 5 59 4
67 -11 67 -10 0 -14 5 -10 11 4 7 1 10 -6 7 -20 -6 -24 -28 -6 -28 9 0 16 -6
16 -14 0 -9 -9 -14 -20 -13 -11 1 -19 6 -19 12 2 18 -13 55 -22 55 -5 0 -14
11 -19 25 -5 14 -14 25 -20 25 -5 0 -32 10 -60 22 -43 19 -50 26 -50 50 0 15
4 28 9 28 5 0 12 11 15 25 7 26 21 31 46 15z m-612 -88 c-4 -39 -31 -34 -41 8
-21 90 -22 89 13 52 22 -24 30 -41 28 -60z m3382 23 c0 -9 -7 -29 -15 -45 -16
-31 -14 -33 22 -31 11 1 24 -3 28 -9 3 -5 11 -8 16 -5 11 7 12 -15 1 -30 -12
-18 -37 -11 -34 9 2 10 -1 15 -7 12 -5 -4 -9 -14 -9 -24 2 -21 -17 -78 -42
-129 -10 -21 -16 -40 -13 -43 3 -3 8 2 11 10 3 8 18 26 34 40 15 13 28 32 28
42 0 10 5 18 10 18 31 0 -33 -107 -75 -124 -18 -8 -36 -19 -39 -25 -4 -6 -11
-9 -17 -6 -5 3 2 24 16 45 29 46 23 53 -48 54 l-51 1 -8 40 c-8 36 -6 42 17
60 15 13 25 31 25 47 0 15 7 33 15 42 8 8 15 19 15 25 0 6 9 11 20 11 11 0 20
5 20 10 0 7 6 7 20 0 16 -9 20 -8 20 5 0 8 9 15 20 15 11 0 20 -7 20 -15z
m-660 -45 c0 -5 -5 -10 -11 -10 -5 0 -7 5 -4 10 3 6 8 10 11 10 2 0 4 -4 4
-10z m-37 -35 c-3 -9 -8 -14 -10 -11 -3 3 -2 9 2 15 9 16 15 13 8 -4z m-3009
-31 c7 -18 0 -34 -15 -34 -5 0 -9 11 -9 25 0 28 15 34 24 9z m3048 -6 c-3 -13
-10 -26 -16 -30 -6 -4 -7 -10 -3 -14 3 -4 13 -2 21 5 11 9 15 8 21 -6 6 -17 7
-17 21 2 13 17 16 18 24 5 20 -31 -1 -87 -34 -92 -40 -6 -75 3 -69 18 4 10 0
12 -11 8 -9 -3 -13 -10 -10 -15 3 -5 -2 -9 -10 -9 -9 0 -16 9 -16 23 -1 12 -2
37 -2 55 -1 37 -10 40 -38 12 -26 -26 -26 -10 1 18 16 18 27 21 53 17 23 -5
36 -2 45 9 19 23 30 20 23 -6z m-3242 -41 c0 -20 7 -31 25 -39 35 -16 28 -29
-34 -59 -60 -30 -128 -85 -137 -111 -3 -10 -15 -23 -26 -29 -18 -10 -20 -9
-16 9 4 14 0 22 -13 25 -37 10 -13 119 33 152 156 109 168 112 168 52z m-1691
-13 c16 -21 61 -138 61 -160 0 -2 -16 -4 -35 -4 -33 0 -38 4 -60 53 -33 70
-42 117 -24 128 23 14 36 10 58 -17z m1451 16 c0 -5 -5 -10 -11 -10 -5 0 -7 5
-4 10 3 6 8 10 11 10 2 0 4 -4 4 -10z m53 3 c-7 -2 -19 -2 -25 0 -7 3 -2 5 12
5 14 0 19 -2 13 -5z m297 -33 c0 -5 -5 -10 -11 -10 -5 0 -7 5 -4 10 3 6 8 10
11 10 2 0 4 -4 4 -10z m-1905 -82 c28 -43 56 -78 63 -78 16 0 15 -15 -2 -30
-27 -22 17 -90 70 -109 19 -7 33 -18 31 -24 -4 -14 -59 -45 -109 -63 -42 -14
-50 -9 -53 37 -2 15 -14 58 -28 96 -14 37 -35 104 -47 148 -12 43 -25 85 -27
93 -4 10 2 13 23 10 24 -2 38 -17 79 -80z m5145 52 c0 -5 -10 -15 -22 -21 -23
-12 -23 -12 -4 10 21 23 26 26 26 11z m-4070 -70 c-14 -4 -32 -8 -40 -9 -13
-1 -13 0 0 9 8 5 26 9 40 9 l25 -1 -25 -8z m260 -10 c0 -5 -5 -10 -11 -10 -5
0 -7 5 -4 10 3 6 8 10 11 10 2 0 4 -4 4 -10z m210 -40 c0 -5 -7 -10 -16 -10
-8 0 -12 5 -9 10 3 6 10 10 16 10 5 0 9 -4 9 -10z m-164 -35 c3 -14 15 -32 26
-39 15 -11 16 -16 7 -22 -7 -4 -15 -2 -17 4 -2 7 -12 12 -23 12 -17 0 -18 -3
-9 -20 6 -11 15 -18 20 -15 5 3 18 1 29 -4 16 -9 18 -16 10 -48 -5 -21 -9 -56
-10 -78 -1 -38 -1 -39 -8 -10 -4 17 -17 49 -29 72 -12 23 -22 49 -22 57 0 20
-31 36 -68 36 -17 0 -113 -25 -214 -55 -100 -31 -208 -63 -238 -71 -30 -9 -83
-24 -118 -35 -34 -10 -71 -19 -82 -19 -10 0 -29 -4 -42 -9 -13 -5 -41 -14 -63
-20 -65 -20 -115 -45 -119 -61 -2 -8 -7 -32 -11 -52 -3 -21 -14 -42 -23 -47
-15 -8 -18 -5 -18 23 0 17 -14 60 -31 95 -22 44 -29 70 -24 84 11 28 1 67 -16
67 -8 0 -13 6 -10 13 10 28 157 6 157 -24 0 -7 -10 -9 -27 -5 l-28 7 33 -26
c17 -15 32 -33 32 -41 0 -13 3 -13 28 0 38 21 234 83 317 100 39 8 108 26 155
40 47 14 150 42 230 62 80 20 149 40 155 45 18 18 45 9 51 -16z m241 -77 c-3
-7 -5 -2 -5 12 0 14 2 19 5 13 2 -7 2 -19 0 -25z m-1795 -172 c-7 -18 -12 -47
-12 -64 0 -43 39 -132 55 -125 16 6 28 -13 32 -51 2 -17 8 -35 13 -40 6 -6 10
-16 10 -24 0 -12 -4 -11 -25 2 -13 9 -39 24 -57 34 -76 43 -108 195 -59 285
22 40 26 43 39 30 13 -12 13 -21 4 -47z m92 -90 c36 -16 38 -19 22 -34 -15
-15 -19 -15 -44 -2 -23 14 -48 69 -25 58 4 -2 26 -12 47 -22z m1791 -56 c0
-18 -43 -26 -57 -12 -16 16 2 33 30 30 16 -2 27 -9 27 -18z m-129 1 c-4 -5 0
-12 6 -14 10 -4 9 -8 -2 -16 -8 -6 -18 -7 -23 -2 -9 9 2 41 15 41 5 0 7 -4 4
-9z m-86 -84 c0 -39 -38 -75 -53 -49 -2 4 -2 1 -1 -6 2 -7 -8 -17 -21 -22 -29
-11 -29 -13 -13 -40 15 -24 4 -37 -17 -20 -11 9 -14 23 -11 44 3 17 3 24 0 16
-15 -35 -26 -41 -40 -23 -18 24 -17 43 1 43 8 0 15 9 15 19 0 22 30 35 58 27
15 -5 23 3 37 35 17 37 20 39 32 23 7 -10 13 -31 13 -47z m-1550 33 c0 -5 -2
-10 -4 -10 -3 0 -8 5 -11 10 -3 6 -1 10 4 10 6 0 11 -4 11 -10z m400 -24 c0
-18 -48 -71 -72 -79 -30 -11 -20 14 22 55 45 42 50 44 50 24z m1265 4 c3 -5 1
-10 -4 -10 -6 0 -11 5 -11 10 0 6 2 10 4 10 3 0 8 -4 11 -10z m-1467 -125 c7
-15 17 -22 26 -19 11 4 14 -9 14 -70 1 -71 -1 -77 -29 -100 -29 -25 -39 -48
-18 -43 6 1 14 -4 16 -10 3 -7 0 -13 -6 -13 -6 0 -8 -6 -6 -12 6 -17 -3 -29
-40 -53 -30 -20 -35 -22 -68 -24 -10 0 -15 -5 -12 -11 3 -5 2 -10 -4 -10 -5 0
-11 6 -14 13 -6 17 21 80 38 90 13 7 13 11 1 30 -8 12 -16 59 -19 105 -3 45
-10 88 -16 95 -15 19 19 45 66 50 21 2 43 4 49 5 6 1 16 -9 22 -23z m37 -273
c-8 -8 -25 10 -19 20 4 6 9 5 15 -3 4 -7 6 -15 4 -17z"/>
<path d="M8591 5744 c0 -11 3 -14 6 -6 3 7 2 16 -1 19 -3 4 -6 -2 -5 -13z"/>
<path d="M6216 4851 c-4 -5 -2 -12 3 -15 5 -4 12 -2 15 3 4 5 2 12 -3 15 -5 4
-12 2 -15 -3z"/>
<path d="M6833 4195 c0 -22 2 -30 4 -17 2 12 2 30 0 40 -3 9 -5 -1 -4 -23z"/>
<path d="M3790 3073 c0 -5 14 -26 30 -47 24 -31 30 -35 30 -19 0 11 -10 32
-23 46 -22 27 -37 34 -37 20z"/>
<path d="M3880 2951 c6 -12 15 -21 20 -21 18 0 11 19 -11 30 -19 11 -20 10 -9
-9z"/>
<path d="M3910 2912 c0 -5 11 -19 24 -31 25 -23 25 -23 19 -2 -5 21 -43 50
-43 33z"/>
<path d="M3770 2878 c0 -9 5 -20 11 -23 17 -11 20 0 4 21 -13 17 -14 17 -15 2z"/>
<path d="M5385 2560 c-3 -5 -1 -10 4 -10 6 0 11 5 11 10 0 6 -2 10 -4 10 -3 0
-8 -4 -11 -10z"/>
<path d="M5322 2550 c-34 -8 -49 -17 -41 -25 8 -8 79 15 79 25 0 6 -1 10 -2 9
-2 -1 -18 -5 -36 -9z"/>
<path d="M4608 2467 c-38 -12 -68 -24 -68 -28 0 -10 96 8 126 24 46 24 13 26
-58 4z"/>
<path d="M4805 2460 c-3 -5 1 -10 9 -10 9 0 16 5 16 10 0 6 -4 10 -9 10 -6 0
-13 -4 -16 -10z"/>
<path d="M4730 2450 c-12 -8 -9 -10 12 -10 15 0 30 5 33 10 8 13 -25 13 -45 0z"/>
<path d="M4665 2430 c-13 -6 -15 -9 -5 -9 8 0 22 4 30 9 18 12 2 12 -25 0z"/>
<path d="M4610 2409 c0 -5 5 -7 10 -4 6 3 10 8 10 11 0 2 -4 4 -10 4 -5 0 -10
-5 -10 -11z"/>
<path d="M4820 2400 c-12 -8 -9 -10 12 -10 15 0 30 5 33 10 8 13 -25 13 -45 0z"/>
<path d="M4778 2383 c7 -3 16 -2 19 1 4 3 -2 6 -13 5 -11 0 -14 -3 -6 -6z"/>
<path d="M6095 2010 c-3 -5 -1 -10 4 -10 6 0 11 5 11 10 0 6 -2 10 -4 10 -3 0
-8 -4 -11 -10z"/>
<path d="M1202 2000 c14 -22 24 -19 15 5 -4 8 -11 15 -17 15 -6 0 -6 -7 2 -20z"/>
<path d="M4006 6708 c9 -40 -4 -84 -19 -69 -20 20 -34 12 -29 -18 3 -22 -1
-29 -18 -34 -12 -3 -19 -10 -16 -15 7 -11 -15 -72 -26 -72 -15 0 -8 -22 18
-52 14 -17 23 -37 20 -44 -6 -14 28 -29 44 -19 5 3 10 12 10 18 0 7 11 25 24
42 20 25 26 27 39 17 12 -10 13 -20 6 -44 -10 -38 -10 -38 19 -27 26 10 28 26
7 76 -13 30 -13 46 -4 95 11 54 10 63 -10 104 -14 28 -29 44 -41 44 -10 0 -21
6 -24 13 -3 6 -3 0 0 -15z"/>
<path d="M3862 6703 c-7 -2 -17 -14 -23 -26 -11 -21 -10 -20 15 2 14 14 26 26
26 28 0 3 0 3 -18 -4z"/>
<path d="M3895 6659 c-10 -15 3 -25 16 -12 7 7 7 13 1 17 -6 3 -14 1 -17 -5z"/>
<path d="M3886 6613 c-4 -11 -13 -24 -21 -27 -17 -6 -21 -46 -5 -46 12 0 42
69 37 84 -2 6 -7 1 -11 -11z"/>
<path d="M2516 6492 c-3 -6 -1 -14 5 -17 15 -10 25 3 12 16 -7 7 -13 7 -17 1z"/>
<path d="M3700 6375 c-11 -13 -10 -14 4 -9 9 3 16 10 16 15 0 13 -6 11 -20 -6z"/>
<path d="M3871 6246 c-10 -12 -8 -13 8 -9 12 3 21 9 21 14 0 14 -16 11 -29 -5z"/>
<path d="M3720 6225 c0 -9 5 -15 11 -13 6 2 11 8 11 13 0 5 -5 11 -11 13 -6 2
-11 -4 -11 -13z"/>
<path d="M4085 6200 c-3 -5 -1 -10 4 -10 6 0 11 5 11 10 0 6 -2 10 -4 10 -3 0
-8 -4 -11 -10z"/>
<path d="M2926 6174 c-10 -25 -7 -30 14 -31 23 -2 25 5 6 30 -12 16 -14 16
-20 1z"/>
<path d="M2820 6169 c0 -5 5 -9 10 -9 19 0 10 -19 -25 -54 l-34 -34 27 -56
c26 -53 52 -74 52 -41 0 8 5 15 11 15 6 0 9 7 5 15 -3 9 0 15 9 15 8 0 15 9
15 20 0 11 5 20 11 20 25 0 -34 105 -63 113 -10 3 -18 1 -18 -4z"/>
<path d="M7960 5956 c0 -14 5 -28 10 -31 6 -3 10 0 10 9 0 8 3 21 6 30 4 11 1
16 -10 16 -10 0 -16 -9 -16 -24z"/>
<path d="M820 4410 c20 -13 33 -13 25 0 -3 6 -14 10 -23 10 -15 0 -15 -2 -2
-10z"/>
<path d="M190 4250 c0 -5 9 -15 20 -22 30 -19 25 -52 -13 -80 -18 -14 -37 -36
-44 -49 -14 -29 -39 -88 -47 -111 -3 -10 -13 -18 -22 -18 -9 0 -32 -15 -50
-32 l-34 -33 0 -255 1 -255 24 28 c14 16 22 34 19 40 -4 7 -4 9 0 5 8 -6 68
75 87 117 5 11 21 40 34 64 14 24 25 54 25 67 0 23 18 117 28 144 3 8 4 23 3
34 -2 10 1 16 6 13 4 -3 8 8 9 24 1 16 11 40 23 53 12 12 19 25 16 28 -3 3 5
22 19 43 14 20 28 45 31 56 4 10 13 19 21 19 20 0 17 27 -6 60 -31 44 -150 91
-150 60z"/>
<path d="M420 4014 c0 -28 15 -25 23 6 3 13 0 20 -9 20 -8 0 -14 -10 -14 -26z"/>
</g>
</svg>
